<?xml version="1.0" encoding="utf-8"?>
<svg version="1.1" id="Layer_1" x="0px" y="0px" width="100%" viewBox="0 0 150 150" enable-background="new 0 0 150 150" xmlns="http://www.w3.org/2000/svg">
  <rect width="100%" height="100%" fill="black" /> 
  <path fill="#F7F7F7" opacity="1.000000" stroke="none" d="M 40.294 100.296 C 35.174 110.556 30.299 120.346 25.064 130.86 C 50.611 130.86 75.384 130.86 100.761 130.86 C 100.761 135.192 100.761 139.001 100.761 143.156 C 68.354 143.156 36.044 143.156 2.612 143.156 C 3.687 140.814 4.534 138.812 5.508 136.869 C 26.587 94.826 47.661 52.78 68.828 10.779 C 69.904 8.647 71.824 6.909 73.351 4.989 C 74.875 6.884 76.798 8.592 77.861 10.704 C 87.52 29.892 97.028 49.151 106.57 68.367 C 105.805 68.83 105.452 69.224 105.081 69.24 C 90.836 69.865 90.841 69.858 84.81 57.678 C 81.21 50.408 77.593 43.144 73.352 34.605 C 62.063 57.044 51.301 78.436 40.294 100.296 Z" style=""/>
  <path fill="#F8F8F8" opacity="1.000000" stroke="none" d="M 127.081 111.322 C 126.508 112.939 126.006 114.824 126.69 116.128 C 131.372 125.031 136.303 133.813 141.162 142.649 C 129.678 146.691 126.245 145.447 120.825 135.473 C 117.134 128.685 113.632 121.78 109.499 115.248 C 108.326 113.396 105.31 111.786 103.007 111.601 C 96.804 111.102 90.53 111.429 83.759 111.429 C 83.759 108.268 83.759 104.913 83.759 100.957 C 95.412 100.957 107.196 100.548 118.93 101.105 C 126.324 101.457 127.159 98.156 127.125 92.31 C 127.093 86.656 126.132 84.031 119.176 84.208 C 99.162 84.719 79.126 84.389 58.625 84.389 C 58.625 80.523 58.625 77.161 58.625 73.387 C 82.458 73.387 106.071 73.325 129.682 73.439 C 134.602 73.462 137.23 76.6 137.41 81.07 C 137.709 88.504 137.805 95.969 137.458 103.397 C 137.196 109.014 133.484 111.566 127.081 111.322 Z" style=""/>
</svg>