<svg version="1.1" id="Layer_1" xmlns="http://www.w3.org/2000/svg" xmlns:xlink="http://www.w3.org/1999/xlink" x="0px" y="0px"
	 width="100%" viewBox="0 0 150 150" enable-background="new 0 0 150 150" xml:space="preserve">
<path fill="#010101" opacity="1.000000" stroke="none" 
	d="
M1.000000,150.000000 
	C1.000000,100.381859 1.000000,50.763714 1.000000,1.072785 
	C50.902538,1.072785 100.805214,1.072785 151.000000,1.072785 
	C151.000000,50.353844 151.000000,99.708260 150.531342,149.532318 
	C100.375122,150.001297 50.687561,150.000641 1.000000,150.000000 
M54.460621,93.989098 
	C61.873367,78.695320 69.286110,63.401543 77.062164,47.358204 
	C79.983856,53.463924 82.475136,58.656616 84.954659,63.854912 
	C89.108299,72.563034 89.105293,72.567825 98.917603,72.121384 
	C99.173134,72.109756 99.416351,71.827209 99.942917,71.496819 
	C93.370682,57.758659 86.820900,43.989513 80.167694,30.270523 
	C79.435829,28.761410 78.111053,27.539831 77.061272,26.184889 
	C76.009621,27.558167 74.686646,28.799700 73.946396,30.324184 
	C59.365345,60.352707 44.850044,90.413162 30.330746,120.471649 
	C29.659855,121.860558 29.076649,123.291817 28.336136,124.966782 
	C51.364536,124.966782 73.619202,124.966782 95.940979,124.966782 
	C95.940979,121.995972 95.940979,119.273170 95.940979,116.176163 
	C78.462334,116.176163 61.398140,116.176163 43.801220,116.176163 
	C47.407047,108.658791 50.764534,101.659157 54.460621,93.989098 
M114.497978,102.205803 
	C118.481110,102.381905 121.038071,100.557564 121.218895,96.541534 
	C121.458031,91.230423 121.391602,85.893860 121.185440,80.578751 
	C121.061493,77.383057 119.251358,75.139282 115.862625,75.122368 
	C99.598625,75.041138 83.334000,75.085876 66.917770,75.085876 
	C66.917770,77.783394 66.917770,80.187561 66.917770,82.951088 
	C81.038887,82.951088 94.840370,83.187325 108.625938,82.822296 
	C113.417343,82.695419 114.079338,84.572609 114.101479,88.614494 
	C114.124374,92.794258 113.549759,95.154350 108.456184,94.903046 
	C100.373833,94.504280 92.257370,94.796677 84.230713,94.796677 
	C84.230713,97.624657 84.230713,100.023445 84.230713,102.284294 
	C88.894478,102.284294 93.216232,102.049187 97.488464,102.406364 
	C99.075272,102.539032 101.152733,103.689865 101.960190,105.014259 
	C104.807152,109.683853 107.219612,114.619995 109.761292,119.473679 
	C113.495468,126.604637 115.859688,127.493645 123.769737,124.603767 
	C120.422974,118.286522 117.026512,112.008331 113.802132,105.642990 
	C113.329872,104.710678 113.676521,103.363548 114.497978,102.205803 
z"/>
<path fill="#3F3F3F" opacity="1.000000" stroke="none" 
	d="
M1.000000,150.500000 
	C50.687561,150.000641 100.375122,150.001297 150.531342,150.000977 
	C149.666672,150.333328 148.333618,150.956726 146.999954,150.958084 
	C98.333344,151.007950 49.666668,151.000000 1.000000,150.500000 
z"/>
<path fill="#F7F7F7" opacity="1.000000" stroke="none" 
	d="
M54.291321,94.324310 
	C50.764534,101.659157 47.407047,108.658791 43.801220,116.176163 
	C61.398140,116.176163 78.462334,116.176163 95.940979,116.176163 
	C95.940979,119.273170 95.940979,121.995972 95.940979,124.966782 
	C73.619202,124.966782 51.364536,124.966782 28.336136,124.966782 
	C29.076649,123.291817 29.659855,121.860558 30.330746,120.471649 
	C44.850044,90.413162 59.365345,60.352707 73.946396,30.324184 
	C74.686646,28.799700 76.009621,27.558167 77.061279,26.184891 
	C78.111053,27.539831 79.435829,28.761410 80.167694,30.270523 
	C86.820900,43.989513 93.370682,57.758659 99.942917,71.496819 
	C99.416351,71.827209 99.173134,72.109756 98.917603,72.121384 
	C89.105293,72.567825 89.108299,72.563034 84.954659,63.854912 
	C82.475136,58.656616 79.983856,53.463924 77.062164,47.358204 
	C69.286110,63.401543 61.873367,78.695320 54.291321,94.324310 
z"/>
<path fill="#F8F8F8" opacity="1.000000" stroke="none" 
	d="
M114.071121,102.207077 
	C113.676521,103.363548 113.329872,104.710678 113.802132,105.642990 
	C117.026512,112.008331 120.422974,118.286522 123.769737,124.603767 
	C115.859688,127.493645 113.495468,126.604637 109.761292,119.473679 
	C107.219612,114.619995 104.807152,109.683853 101.960190,105.014259 
	C101.152733,103.689865 99.075272,102.539032 97.488464,102.406364 
	C93.216232,102.049187 88.894478,102.284294 84.230713,102.284294 
	C84.230713,100.023445 84.230713,97.624657 84.230713,94.796677 
	C92.257370,94.796677 100.373833,94.504280 108.456184,94.903046 
	C113.549759,95.154350 114.124374,92.794258 114.101479,88.614494 
	C114.079338,84.572609 113.417343,82.695419 108.625938,82.822296 
	C94.840370,83.187325 81.038887,82.951088 66.917770,82.951088 
	C66.917770,80.187561 66.917770,77.783394 66.917770,75.085876 
	C83.334000,75.085876 99.598625,75.041138 115.862625,75.122368 
	C119.251358,75.139282 121.061493,77.383057 121.185440,80.578751 
	C121.391602,85.893860 121.458031,91.230423 121.218895,96.541534 
	C121.038071,100.557564 118.481110,102.381905 114.071121,102.207077 
z"/>
</svg>